# AST/ASF file generated using VICON BodyLanguage
# -----------------------------------------------
:version 1.10
:name VICON
:units
  mass 1.0
  length 0.45
  angle deg
:documentation
   .ast/.asf automatically generated from VICON data using
   VICON BodyBuilder and BodyLanguage model FoxedUp or BRILLIANT.MOD
:root
   order TX TY TZ RX RY RZ
   axis XYZ
   position 0 0 0  
   orientation 0 -0 0 
:bonedata
  begin
     id 1 
     name lhipjoint
     direction 0.500677 -0.737119 0.453848 
     length 2.34727 
     axis 0 -0 0  XYZ
  end
  begin
     id 2 
     name lfemur
     direction 0.34202 -0.939693 0  
     length 7.53653  
     axis 0 -0 20  XYZ
    dof rx ry rz
    limits (-160.0 20.0)
           (-70.0 70.0)
           (-60.0 70.0)
  end
  begin
     id 3 
     name ltibia
     direction 0.34202 -0.939693 0   
     length 6.85572   
     axis 0 -0 20   XYZ
    dof rx
    limits (-10.0 170.0)
  end
  begin
     id 4 
     name lfoot
     direction 0.155313 -0.426718 0.890949   
     length 2.18324   
     axis -90 -1.13533e-015 20   XYZ
    dof rx rz
    limits (-45.0 90.0)
           (-70.0 20.0)
  end
  begin
     id 5 
     name ltoes
     direction 1.53474e-011 -4.21647e-011 1   
     length 1.06748   
     axis -90 -1.13533e-015 20   XYZ
    dof rx
    limits (-90.0 20.0)
  end
  begin
     id 6 
     name rhipjoint
     direction -0.632471 -0.659587 0.406111   
     length 2.62319  
     axis 0 -0 0  XYZ 
  end
  begin
     id 7 
     name rfemur
     direction -0.34202 -0.939693 0   
     length 7.21735   
     axis 0 -0 -20   XYZ
    dof rx ry rz
    limits (-160.0 20.0)
           (-70.0 70.0)
           (-70.0 60.0)
  end
  begin
     id 8 
     name rtibia
     direction -0.34202 -0.939693 0   
     length 7.02558   
     axis 0 -0 -20   XYZ
    dof rx
    limits (-10.0 170.0)
 end
 begin
     id 9 
     name rfoot
     direction -0.16057 -0.441164 0.882945   
     length 2.10014  
     axis -90 1.13533e-015 -20   XYZ
    dof rx rz
    limits (-45.0 90.0)
           (-20.0 70.0)
  end
  begin
     id 10 
     name rtoes
     direction -1.53553e-011 -4.2192e-011 1   
     length 1.02554   
     axis -90 1.13533e-015 -20   XYZ
    dof rx
    limits (-90.0 20.0)
  end
  begin
     id 11 
     name lowerback
     direction 0.0401429 0.998861 -0.0258085   
     length 1.80848   
     axis 0 -0 0   XYZ
    dof rx ry rz
    limits (-20.0 45.0)
           (-30.0 30.0)
           (-30.0 30.0)
  end
  begin
     id 12 
     name upperback
     direction -0.0130978 0.999914 -0.000352645   
     length 1.8116   
     axis 0 -0 0   XYZ
    dof rx ry rz
    limits (-20.0 45.0)
           (-30.0 30.0)
           (-30.0 30.0)
  end
  begin
     id 13 
     name thorax
     direction -0.0300198 0.999453 0.0138573   
     length 1.81778   
     axis 0 -0 0   XYZ
    dof rx ry rz
    limits (-20.0 45.0)
           (-30.0 30.0)
           (-30.0 30.0)
  end
  begin
     id 14 
     name lowerneck
     direction -0.0401726 0.999191 -0.00173647   
     length 2.10594   
     axis 0 -0 0   XYZ
    dof rx ry rz
    limits (-20.0 45.0)
           (-30.0 30.0)
           (-30.0 30.0)
  end
  begin
     id 15 
     name upperneck
     direction 0.0119835 0.998501 0.0534085   
     length 2.07325   
     axis 0 -0 0   XYZ
    dof rx ry rz
    limits (-20.0 45.0)
           (-30.0 30.0)
           (-30.0 30.0)
  end
  begin
     id 16
     name head
     direction 0.00628309 0.999826 0.0175921  
     length 2.15096  
     axis 0 -0 0   XYZ
    dof rx ry rz
    limits (-20.0 45.0)
           (-30.0 30.0)
           (-30.0 30.0)
  end
  begin
     id 17 
     name lclavicle
     direction 0.895501 0.429681 -0.115981  
     length 4.18092  
     axis 0 -0 0   XYZ
    dof ry rz
    limits (-20.0 10.0)
           (0.0 20.0)
  end
  begin
     id 18 
     name lhumerus
     direction 1 -4.48961e-011 -3.38433e-028   
     length 5.77237   
     axis 180 -30 -90   XYZ
    dof rx ry rz
    limits (-60.0 90.0)
           (-90.0 90.0)
           (-90.0 90.0)
  end
  begin
     id 19
     name lradius
     direction 1 -4.4901e-011 1.11983e-026   
     length 2.91878   
     axis 180 -30 -90   XYZ
    dof rx
    limits (-10.0 170.0)
  end
  begin
     id 20
     name lwrist
     direction 1 -4.48934e-011 1.88176e-026   
     length 1.45939   
     axis -1.23311e-014 90 90   XYZ
    dof ry
    limits (-180.0 0.0)
 end
  begin
     id 21 
     name lhand
     direction 1 -4.4895e-011 3.76352e-026   
     length 1.06566   
     axis -2.40147e-014 90 90   XYZ
    dof rx rz
    limits (-90.0 90.0)
           (-45.0 45.0)
  end
  begin
     id 22 
     name lfingers
     direction 1 -4.49005e-011 7.52705e-026   
     length 0.859162   
     axis -4.80295e-014 90 90   XYZ
    dof rx
    limits (0.0 90.0)
  end
  begin
     id 23
     name lthumb
     direction 0.707107 -6.34885e-011 0.707107   
     length 1.23359   
     axis -90 45 -9.86935e-015   XYZ
    dof rx rz
    limits (-45.0 45.0)
           (-45.0 45.0)
  end
  begin
     id 24 
     name rclavicle
     direction -0.91006 0.40451 -0.0903492   
     length 4.23293  
     axis 0 -0 0   XYZ 
    dof ry rz
    limits (-10.0 20.0)
           (-20.0 0.0)
  end
  begin
     id 25 
     name rhumerus
     direction -1 -4.4897e-011 1.7415e-027  
     length 5.49854   
     axis 180 30 90   XYZ
    dof rx ry rz
    limits (-90.0 60.0)
           (-90.0 90.0)
           (-90.0 90.0)
  end
  begin
     id 26 
     name rradius
     direction -1 -4.48963e-011 1.21259e-026   
     length 3.1186   
     axis 180 30 90   XYZ
    dof rx
    limits (-10.0 170.0)
  end
  begin
     id 27 
     name rwrist
     direction -1 -4.48967e-011 1.88176e-026   
     length 1.5593   
     axis -1.23311e-014 -90 -90   XYZ
    dof ry
    limits (-180.0 0.0)
  end
  begin
     id 28
     name rhand
     direction -1 -4.4895e-011 3.76352e-026   
     length 0.71207   
     axis -2.40147e-014 -90 -90   XYZ
    dof rx rz
    limits (-90.0 90.0)
           (-45.0 45.0)
  end
  begin
     id 29
     name rfingers
     direction -1 -4.49005e-011 7.52705e-026   
     length 0.574089   
     axis -4.80295e-014 -90 -90   XYZ
    dof rx
    limits (0.0 90.0)
  end
  begin
     id 30
     name rthumb
     direction -0.707107 -6.34982e-011 0.707107   
     length 0.824281   
     axis -90 -45 9.86935e-015   XYZ
    dof rx rz
    limits (-45.0 45.0)
           (-45.0 45.0)
  end
:hierarchy
  begin
    root lhipjoint rhipjoint lowerback
    lhipjoint lfemur
    lfemur ltibia
    ltibia lfoot
    lfoot ltoes
    rhipjoint rfemur
    rfemur rtibia
    rtibia rfoot
    rfoot rtoes
    lowerback upperback
    upperback thorax
    thorax lowerneck lclavicle rclavicle
    lowerneck upperneck
    upperneck head
    lclavicle lhumerus
    lhumerus lradius
    lradius lwrist
    lwrist lhand lthumb
    lhand lfingers
    rclavicle rhumerus
    rhumerus rradius
    rradius rwrist
    rwrist rhand rthumb
    rhand rfingers
  end

#!OML:ASF C:\ViconDB\ViconDB\414\Spring2016\042216\male.ASF
:FULLY-SPECIFIED
:DEGREES
97
root -27.506 17.2927 11.1715 -160.185 78.9026 198.417
lowerback 0.284666 -1.95007 4.05955
upperback -1.21073 -2.56382 -0.797343
thorax -1.61945 -1.3353 -3.04571
lowerneck -1.74377 6.20034 -2.06293
upperneck -5.44642 8.20288 -4.74236
head -1.27192 4.24325 -1.16961
rclavicle 1.51201e-014 -3.57812e-015
rhumerus -30.1514 -2.49288 -95.248
rradius 25.2833
rwrist 33.2877
rhand 12.948 -20.1371
rfingers 7.12502
rthumb 37.9167 -45.9589
lclavicle 1.51201e-014 -3.57812e-015
lhumerus -35.882 14.7605 86.9916
lradius 31.3379
lwrist -15.1788
lhand -10.1107 15.9439
lfingers 7.12502
lthumb 15.8771 45.313
rfemur -1.31336 3.50443 21.5501
rtibia 25.9463
rfoot -20.0497 -9.48983
rtoes -18.0438
lfemur -8.176 0.226065 -18.6594
ltibia 26.5342
lfoot -27.3091 7.9472
ltoes -11.1542
98
root -27.4928 17.2954 11.1643 -159.919 78.6048 198.76
lowerback 0.42112 -2.0519 3.89965
upperback -1.12696 -2.69692 -0.720733
thorax -1.60938 -1.398 -2.87065
lowerneck -1.72854 6.16726 -2.36153
upperneck -5.76209 8.15559 -4.66513
head -1.39061 4.23414 -1.10839
rclavicle 7.78366e-015 1.98785e-015
rhumerus -29.9069 -2.45172 -95.1453
rradius 25.363
rwrist 33.2288
rhand 12.7627 -20.1108
rfingers 7.12502
rthumb 37.7417 -45.9798
lclavicle 7.78366e-015 1.98785e-015
lhumerus -35.8707 14.7922 87.0328
lradius 31.2598
lwrist -15.2607
lhand -10.0713 15.6482
lfingers 7.12502
lthumb 15.915 45.0143
rfemur -2.09894 2.76204 21.4924
rtibia 27.3151
rfoot -19.2063 -8.52469
rtoes -19.5016
lfemur -7.96477 -0.16122 -18.5245
ltibia 26.3528
lfoot -27.2535 8.0867
ltoes -11.1504
99
root -27.4799 17.3015 11.1515 -159.926 78.3399 198.761
lowerback 0.547621 -2.12086 3.87218
upperback -1.07708 -2.78758 -0.870176
thorax -1.64253 -1.44421 -3.0028
lowerneck -1.76091 6.05319 -2.13783
upperneck -5.96081 7.99515 -4.76014
head -1.43745 4.15646 -1.17715
rclavicle 4.65902e-014 9.54166e-015
rhumerus -29.6977 -2.53149 -95.3711
rradius 25.4494
rwrist 33.1134
rhand 12.4631 -20.0646
rfingers 7.12502
rthumb 37.4586 -46.0091
lclavicle 4.65902e-014 9.54166e-015
lhumerus -35.8724 14.5491 86.8513
lradius 31.2141
lwrist -15.5094
lhand -9.87745 15.7771
lfingers 7.12502
lthumb 16.1017 45.1282
rfemur -2.96906 2.06311 21.3435
rtibia 28.8412
rfoot -18.1432 -7.50764
rtoes -21.3566
lfemur -7.82529 -0.486695 -18.4985
ltibia 26.1629
lfoot -27.1549 8.23448
ltoes -11.069
100
root -27.4718 17.3113 11.1399 -158.857 78.0436 199.794
lowerback 0.707823 -2.18262 3.9063
upperback -1.07177 -2.86255 -0.807481
thorax -1.73159 -1.48335 -2.94879
lowerneck -1.88131 5.72115 -1.52455
upperneck -5.77325 7.53393 -5.6958
head -1.30624 3.92615 -1.55481
rclavicle 1.09332e-014 1.59028e-015
rhumerus -29.5104 -2.70821 -95.3175
rradius 25.5953
rwrist 33.0757
rhand 12.1157 -20.2208
rfingers 7.12502
rthumb 37.1301 -46.2515
lclavicle 1.09332e-014 1.59028e-015
lhumerus -35.8783 14.5393 86.8159
lradius 31.1257
lwrist -15.4413
lhand -9.87036 15.8305
lfingers 7.12502
lthumb 16.1085 45.181
rfemur -3.99423 1.79112 21.4577
rtibia 30.4752
rfoot -17.3651 -6.81877
rtoes -22.0466
lfemur -7.78403 -0.849013 -18.2302
ltibia 25.9672
lfoot -27.0854 8.41345
ltoes -11.4136
101
root -27.4603 17.3204 11.1291 -158.451 77.7797 200.189
lowerback 0.813711 -2.2468 3.95997
upperback -1.01891 -2.94549 -0.882584
thorax -1.75024 -1.52574 -3.05044
lowerneck -1.64378 5.5308 -1.40175
upperneck -6.25057 7.25012 -5.85497
head -1.49536 3.80223 -1.64801
rclavicle 1.0107e-014 1.43125e-014
rhumerus -29.2915 -2.68541 -95.461
rradius 25.7428
rwrist 32.868
rhand 12.087 -20.3372
rfingers 7.12502
rthumb 37.103 -46.3749
lclavicle 1.0107e-014 1.43125e-014
lhumerus -35.8813 14.3991 86.7128
lradius 31.0754
lwrist -15.5059
lhand -9.97059 15.8267
lfingers 7.12502
lthumb 16.012 45.185
rfemur -5.04565 1.68959 21.4777
rtibia 32.2294
rfoot -16.3115 -6.37515
rtoes -23.7274
lfemur -7.70418 -1.00096 -18.0751
ltibia 25.8227
lfoot -26.9754 8.38203
ltoes -10.9102
102
root -27.4505 17.3243 11.1224 -158.314 77.4896 200.392
lowerback 1.02495 -2.3852 3.7639
upperback -0.928902 -3.12616 -0.826877
thorax -1.77708 -1.61246 -2.87057
lowerneck -1.86652 5.47867 -1.64408
upperneck -6.33803 7.19371 -5.71462
head -1.49975 3.77778 -1.55802
rclavicle -3.69149e-014 -2.54444e-014
rhumerus -28.9885 -2.72187 -95.4049
rradius 25.7946
rwrist 33.1758
rhand 12.008 -20.1435
rfingers 7.12502
rthumb 37.0283 -46.2006
lclavicle -3.69149e-014 -2.54444e-014
lhumerus -35.8231 14.4486 86.6943
lradius 30.9856
lwrist -15.5976
lhand -10.0541 15.8117
lfingers 7.12502
lthumb 15.9315 45.1765
rfemur -6.07354 1.51196 21.4774
rtibia 34.0378
rfoot -15.1885 -5.91951
rtoes -25.4221
lfemur -7.57103 -1.04885 -17.9217
ltibia 25.7146
lfoot -26.9933 8.1365
ltoes -10.9811
103
root -27.4382 17.3209 11.1128 -157.738 77.2484 200.952
lowerback 1.1976 -2.44672 3.58162
upperback -0.915448 -3.20302 -0.677393
thorax -1.8471 -1.64851 -2.6049
lowerneck -1.66865 5.42493 -2.14527
upperneck -6.86268 7.10928 -5.50525
head -1.72933 3.76264 -1.43341
rclavicle 2.86529e-014 3.18055e-015
rhumerus -28.8033 -2.51581 -95.2663
rradius 25.952
rwrist 32.8056
rhand 11.8805 -20.1859
rfingers 7.12502
rthumb 36.9076 -46.2742
lclavicle 2.86529e-014 3.18055e-015
lhumerus -35.7763 14.4702 86.8283
lradius 30.7852
lwrist -15.6002
lhand -10.2363 15.7995
lfingers 7.12502
lthumb 15.7561 45.1782
rfemur -7.21206 1.55676 21.5456
rtibia 35.8982
rfoot -14.0701 -5.58059
rtoes -26.1127
lfemur -7.52294 -1.15691 -17.7262
ltibia 25.6051
lfoot -27.0473 8.10337
ltoes -11.3382
104
root -27.4199 17.3229 11.0997 -157.616 77.0115 201.078
lowerback 1.16816 -2.53602 3.65947
upperback -0.811413 -3.3254 -0.786259
thorax -1.7436 -1.70824 -2.76009
lowerneck -1.56045 5.35471 -2.31366
upperneck -7.22839 7.00559 -5.37189
head -1.87907 3.72495 -1.37857
rclavicle 1.07623e-014 7.95139e-016
rhumerus -28.583 -2.43748 -95.4833
rradius 26.1484
rwrist 32.7701
rhand 11.7446 -20.2597
rfingers 7.12502
rthumb 36.7791 -46.381
lclavicle 1.07623e-014 7.95139e-016
lhumerus -35.8081 14.3619 86.6647
lradius 30.8454
lwrist -15.5489
lhand -10.1537 15.8819
lfingers 7.12502
lthumb 15.8356 45.2543
rfemur -8.36308 1.29756 21.4841
rtibia 37.7816
rfoot -12.6304 -5.15682
rtoes -27.2845
lfemur -7.40744 -1.31957 -17.6399
ltibia 25.4904
lfoot -27.0167 7.9192
ltoes -10.8773
105
root -27.3989 17.3276 11.0886 -157.532 76.9135 201.177
lowerback 1.19349 -2.58459 3.6229
upperback -0.696561 -3.39394 -0.932214
thorax -1.65167 -1.73983 -2.88931
lowerneck -1.89109 5.28955 -2.19753
upperneck -7.14271 6.9364 -5.37848
head -1.79031 3.68206 -1.3842
rclavicle 5.80824e-014 -1.19271e-014
rhumerus -28.3084 -2.37863 -95.8045
rradius 26.2951
rwrist 32.5131
rhand 11.6268 -20.6886
rfingers 7.12502
rthumb 36.6676 -46.8382
lclavicle 5.80824e-014 -1.19271e-014
lhumerus -35.7495 14.2866 86.3142
lradius 30.6723
lwrist -15.9167
lhand -9.83515 15.6725
lfingers 7.12502
lthumb 16.1424 45.0203
rfemur -9.55751 1.02798 21.3999
rtibia 39.6649
rfoot -11.3088 -4.82579
rtoes -28.4146
lfemur -7.25199 -1.39914 -17.6184
ltibia 25.365
lfoot -27.0339 7.9538
ltoes -10.8617
106
root -27.3797 17.332 11.08 -157.612 76.8051 201.091
lowerback 1.28552 -2.65379 3.48168
upperback -0.610851 -3.48714 -0.958741
thorax -1.61543 -1.78318 -2.83237
lowerneck -1.99593 5.14933 -2.36708
upperneck -7.32741 6.74864 -5.47954
head -1.83763 3.60191 -1.38866
rclavicle -6.63195e-014 -1.11319e-014
rhumerus -28.0112 -2.28997 -95.8801
rradius 26.3802
rwrist 32.5841
rhand 11.7325 -20.6051
rfingers 7.12502
rthumb 36.7676 -46.7293
lclavicle -6.63195e-014 -1.11319e-014
lhumerus -35.7769 14.1865 86.2867
lradius 30.7346
lwrist -15.7629
lhand -9.76529 15.702
lfingers 7.12502
lthumb 16.2097 45.0443
rfemur -10.8104 0.565497 21.2805
rtibia 41.5322
rfoot -9.83509 -4.71227
rtoes -29.6435
lfemur -7.09418 -1.33385 -17.5962
ltibia 25.148
lfoot -27.0095 7.72585
ltoes -10.7271
107
root -27.3552 17.3372 11.0699 -156.933 76.6389 201.798
lowerback 1.26004 -2.73284 3.60606
upperback -0.491014 -3.59364 -1.02158
thorax -1.49789 -1.83418 -2.96746
lowerneck -1.94013 5.1476 -2.60371
upperneck -7.72938 6.74269 -5.28106
head -1.99306 3.61456 -1.30175
rclavicle -1.44119e-014 1.90833e-014
rhumerus -27.76 -1.89068 -96.1811
rradius 26.5431
rwrist 32.1789
rhand 11.4249 -20.5412
rfingers 7.12502
rthumb 36.4765 -46.7392
lclavicle -1.44119e-014 1.90833e-014
lhumerus -35.7515 14.0779 86.0721
lradius 30.7009
lwrist -15.6686
lhand -9.7926 15.7615
lfingers 7.12502
lthumb 16.1834 45.1059
rfemur -11.973 0.115084 21.4083
rtibia 43.2977
rfoot -8.74847 -4.8029
rtoes -29.9862
lfemur -6.87425 -1.19563 -17.3489
ltibia 24.8903
lfoot -26.9845 7.28286
ltoes -10.1181
108
root -27.3304 17.3424 11.059 -156.601 76.5085 202.198
lowerback 1.32863 -2.80404 3.59895
upperback -0.370036 -3.68773 -1.01643
thorax -1.41857 -1.8778 -2.95504
lowerneck -1.94156 5.05608 -2.841
upperneck -8.01487 6.61539 -5.30023
head -2.09577 3.5694 -1.27637
rclavicle 1.39895e-014 1.35174e-014
rhumerus -27.4126 -1.94858 -96.1632
rradius 26.5425
rwrist 32.6023
rhand 11.5854 -20.1538
rfingers 7.12502
rthumb 36.6285 -46.3134
lclavicle 1.39895e-014 1.35174e-014
lhumerus -35.7489 14.0824 85.9767
lradius 30.6658
lwrist -15.8879
lhand -9.79012 15.7657
lfingers 7.12502
lthumb 16.1857 45.11
rfemur -13.0297 -0.178453 21.485
rtibia 44.9477
rfoot -8.23275 -4.89919
rtoes -29.5289
lfemur -6.59167 -1.17971 -17.2035
ltibia 24.5898
lfoot -26.9316 7.16738
ltoes -10.1263
109
root -27.3017 17.3489 11.0467 -156.052 76.4466 202.819
lowerback 1.41187 -2.85544 3.67038
upperback -0.265096 -3.75349 -1.03596
thorax -1.36847 -1.90876 -3.01148
lowerneck -2.01272 5.01406 -3.06074
upperneck -8.24838 6.55652 -5.38634
head -2.16565 3.55783 -1.27157
rclavicle 2.54444e-014 2.3059e-014
rhumerus -27.1851 -1.89478 -96.2903
rradius 26.684
rwrist 32.8073
rhand 11.7221 -20.129
rfingers 7.12502
rthumb 36.7578 -46.2557
lclavicle 2.54444e-014 2.3059e-014
lhumerus -35.7717 14.0328 85.8849
lradius 30.7004
lwrist -15.4599
lhand -9.87194 16.1479
lfingers 7.12502
lthumb 16.107 45.4985
rfemur -14.0434 -0.422772 21.6136
rtibia 46.4342
rfoot -8.08355 -5.14416
rtoes -28.478
lfemur -6.24474 -1.20758 -17.0498
ltibia 24.2385
lfoot -26.8592 7.31873
ltoes -10.4217
110
root -27.2726 17.3595 11.0384 -155.479 76.4119 203.449
lowerback 1.49907 -2.94323 3.74443
upperback -0.185011 -3.86757 -1.09648
thorax -1.35335 -1.96504 -3.10856
lowerneck -1.98489 4.97141 -3.10641
upperneck -8.54919 6.48286 -5.5637
head -2.26687 3.53942 -1.32951
rclavicle -4.91992e-015 -1.59028e-015
rhumerus -26.9275 -1.9018 -96.4436
rradius 26.6806
rwrist 33.1905
rhand 11.7281 -19.5733
rfingers 7.12502
rthumb 36.7635 -45.6985
lclavicle -4.91992e-015 -1.59028e-015
lhumerus -35.8637 14.0764 85.5966
lradius 30.6727
lwrist -15.4795
lhand -9.89952 15.9522
lfingers 7.12502
lthumb 16.0804 45.305
rfemur -15.0316 -0.424123 21.7864
rtibia 47.747
rfoot -8.35993 -5.60359
rtoes -27.526
lfemur -5.85111 -1.2386 -16.8685
ltibia 23.7317
lfoot -26.7089 7.26865
ltoes -10.3327
